<?xml version="1.0" encoding="UTF-8" standalone="no"?>
<!DOCTYPE svg PUBLIC "-//W3C//DTD SVG 1.1//EN" "http://www.w3.org/Graphics/SVG/1.1/DTD/svg11.dtd">
<svg width="100%" height="100%" viewBox="0 0 54 54" version="1.1" xmlns="http://www.w3.org/2000/svg" xmlns:xlink="http://www.w3.org/1999/xlink" xml:space="preserve" xmlns:serif="http://www.serif.com/" style="fill-rule:evenodd;clip-rule:evenodd;stroke-linejoin:round;stroke-miterlimit:1.41421;">
    <g transform="matrix(0.18,0,0,0.18,0,0)">
        <g transform="matrix(0.922558,0,0,0.922558,-18.6366,247.308)">
            <path d="M216.371,-129.607C216.371,-99.802 212.067,-74.687 203.46,-54.261C194.853,-33.834 180.786,-18.225 161.259,-7.434C180.272,-3.58 195.11,3.1 205.772,12.607C216.435,22.113 224.978,36.502 231.402,55.772L195.945,69.646C187.209,47.807 176.932,31.877 165.113,21.856C153.294,11.836 136.464,6.826 114.625,6.826C94.584,6.826 77.498,1.237 63.366,-9.939C49.235,-21.116 38.508,-36.917 31.185,-57.344C23.863,-77.77 20.201,-101.729 20.201,-129.221C20.201,-156.199 23.927,-180.094 31.378,-200.906C38.829,-221.718 49.942,-237.904 64.715,-249.466C79.489,-261.029 97.41,-266.81 118.479,-266.81C149.825,-266.81 173.977,-254.412 190.934,-229.618C207.892,-204.824 216.371,-171.487 216.371,-129.607ZM181.299,-129.607C181.299,-165.834 176.289,-193.069 166.269,-211.312C156.248,-229.554 140.318,-238.675 118.479,-238.675C96.639,-238.675 80.645,-229.49 70.496,-211.119C60.348,-192.748 55.273,-165.449 55.273,-129.221C55.273,-93.25 60.412,-66.208 70.689,-48.094C80.966,-29.98 96.896,-20.923 118.479,-20.923C140.318,-20.923 156.248,-29.98 166.269,-48.094C176.289,-66.208 181.299,-93.379 181.299,-129.607Z" style="fill:rgb(134,110,48);fill-rule:nonzero;"/>
        </g>
        <g transform="matrix(1,0,0,1,32.2771,288.731)">
            <path d="M165.512,11.299L165.512,7.743C166.223,7.743 167.941,7.506 170.667,7.032C173.393,6.558 176.238,5.728 179.201,4.543C182.163,3.358 184.771,1.699 187.023,-0.435C189.275,-2.568 190.401,-5.294 190.401,-8.612C190.401,-10.746 189.749,-14.242 188.445,-19.101C187.141,-23.96 185.304,-29.886 182.934,-36.879C180.563,-43.872 177.838,-51.635 174.756,-60.168C171.675,-68.701 168.356,-77.59 164.801,-86.835L70.223,-86.835C66.667,-77.827 63.23,-69.235 59.912,-61.057C56.593,-52.879 53.275,-44.642 49.956,-36.346C44.978,-23.546 42.489,-14.538 42.489,-9.323C42.489,-6.242 43.438,-3.694 45.334,-1.679C47.23,0.336 49.66,1.995 52.623,3.299C55.586,4.602 58.786,5.551 62.223,6.143C65.66,6.736 68.919,7.269 72.001,7.743L72.001,11.299L-3.733,11.299L-3.733,7.388C2.43,6.677 7.704,5.017 12.089,2.41C16.475,-0.198 19.023,-1.975 19.734,-2.923C21.393,-4.583 24.119,-8.494 27.912,-14.657C31.704,-20.82 36.326,-29.946 41.778,-42.035C46.756,-53.175 52.326,-65.857 58.489,-80.079C64.652,-94.301 70.993,-108.938 77.512,-123.99C84.03,-139.042 90.489,-154.212 96.889,-169.501C103.289,-184.79 109.334,-199.072 115.023,-212.346L111.467,-220.168C115.734,-222.064 119.586,-224.316 123.023,-226.923C126.46,-229.531 129.482,-232.257 132.089,-235.101C134.697,-237.946 136.889,-240.672 138.667,-243.279C140.445,-245.886 141.808,-248.02 142.756,-249.679L145.601,-249.679C152.949,-230.005 159.941,-211.338 166.578,-193.679C173.215,-176.02 179.556,-159.012 185.601,-142.657C191.645,-126.301 197.512,-110.479 203.201,-95.19C208.889,-79.901 214.578,-64.79 220.267,-49.857C222.875,-42.509 225.304,-36.405 227.556,-31.546C229.808,-26.686 232.356,-21.175 235.201,-15.012C235.675,-14.064 236.741,-12.405 238.401,-10.035C240.06,-7.664 242.252,-5.235 244.978,-2.746C247.704,-0.257 251.082,1.936 255.112,3.832C259.141,5.728 263.882,6.795 269.334,7.032L269.334,11.299L165.512,11.299ZM118.934,-204.168C117.512,-201.086 115.438,-196.227 112.712,-189.59C109.986,-182.953 106.608,-174.894 102.578,-165.412C98.549,-155.931 94.104,-145.205 89.245,-133.235C84.386,-121.264 79.112,-108.286 73.423,-94.301L161.956,-94.301C157.926,-104.968 153.838,-115.635 149.689,-126.301C145.541,-136.968 141.512,-147.22 137.601,-157.057C133.689,-166.894 130.134,-175.901 126.934,-184.079C123.734,-192.257 121.067,-198.953 118.934,-204.168Z" style="fill:rgb(16,22,46);fill-rule:nonzero;stroke:rgb(134,110,48);stroke-width:1px;"/>
        </g>
    </g>
</svg>
